HIERARCHY
ROOT root
{
	OFFSET	0	13.1	24.9
	CHANNELS 6  Xposition Yposition Zposition Xrotation Yrotation Zrotation
	JOINT spine_1
	{
		OFFSET	0	9.99999	0
		CHANNELS 3  Xrotation Yrotation Zrotation
		JOINT spine_2
		{
			OFFSET	0	112	-10
			CHANNELS 3  Xrotation Yrotation Zrotation
			JOINT spine_3
			{
				OFFSET	0	206.5	19.3
				CHANNELS 3  Xrotation Yrotation Zrotation
				JOINT spine_4
				{
					OFFSET	0	110.4	14.6
					CHANNELS 3  Xrotation Yrotation Zrotation
					JOINT neck_1
					{
						OFFSET	0	71.8	-50.3
						CHANNELS 3  Xrotation Yrotation Zrotation
						JOINT neck_2
						{
							OFFSET	0	86.2	-25.8
							CHANNELS 3  Xrotation Yrotation Zrotation
							JOINT head_ee
							{
								OFFSET	0	179.8	-8.7
								CHANNELS 3  Xrotation Yrotation Zrotation
								End Site
								{
									OFFSET	1	0	0
								}
							}
						}
					}
					JOINT left_clavicle
					{
						OFFSET	-43.2	22.4	-70.8
						CHANNELS 3  Xrotation Yrotation Zrotation
						JOINT left_shoulder
						{
							OFFSET	-93.9	-5.79999	48.7
							CHANNELS 3  Xrotation Yrotation Zrotation
							JOINT left_elbow
							{
								OFFSET	-291.4	-30.8	15.2
								CHANNELS 3  Xrotation Yrotation Zrotation
								JOINT left_lowarm_twist
								{
									OFFSET	-110.7	-3.89999	13.6
									CHANNELS 3  Xrotation Yrotation Zrotation
									JOINT left_hand
									{
										OFFSET	-110.7	-3.89999	13.6
										CHANNELS 3  Xrotation Yrotation Zrotation
										JOINT left_ee
										{
											OFFSET	-80.8	-5.10001	12.1
											CHANNELS 3  Xrotation Yrotation Zrotation
											End Site
											{
												OFFSET	1	0	0
											}
										}
									}
								}
							}
						}
					}
					JOINT right_clavicle
					{
						OFFSET	43.2	22.4	-70.8
						CHANNELS 3  Xrotation Yrotation Zrotation
						JOINT right_shoulder
						{
							OFFSET	93.9	-5.79999	48.7
							CHANNELS 3  Xrotation Yrotation Zrotation
							JOINT right_elbow
							{
								OFFSET	291.4	-30.8	15.2
								CHANNELS 3  Xrotation Yrotation Zrotation
								JOINT right_lowarm_twist
								{
									OFFSET	110.7	-3.89999	13.6
									CHANNELS 3  Xrotation Yrotation Zrotation
									JOINT right_hand
									{
										OFFSET	110.7	-3.89999	13.6
										CHANNELS 3  Xrotation Yrotation Zrotation
										JOINT right_ee
										{
											OFFSET	80.8	-5.10001	12.1
											CHANNELS 3  Xrotation Yrotation Zrotation
											End Site
											{
												OFFSET	1	0	0
											}
										}
									}
								}
							}
						}
					}
				}
			}
		}
	}
	JOINT left_hip
	{
		OFFSET	-82.8	-127.5	0.300001
		CHANNELS 3  Xrotation Yrotation Zrotation
		JOINT left_knee
		{
			OFFSET	-28.2	-396.7	2.2
			CHANNELS 3  Xrotation Yrotation Zrotation
			JOINT left_ankle
			{
				OFFSET	-11.7	-411.3	35.4
				CHANNELS 3  Xrotation Yrotation Zrotation
				JOINT left_toes
				{
					OFFSET	0	-60	-88.6
					CHANNELS 3  Xrotation Yrotation Zrotation
					JOINT left_foot_ee
					{
						OFFSET	-22.5	-16.5	-42.2
						CHANNELS 3  Xrotation Yrotation Zrotation
						End Site
						{
							OFFSET	1	0	0
						}
					}
				}
			}
		}
	}
	JOINT right_hip
	{
		OFFSET	82.8	-127.5	0.300001
		CHANNELS 3  Xrotation Yrotation Zrotation
		JOINT right_knee
		{
			OFFSET	28.2	-396.7	2.2
			CHANNELS 3  Xrotation Yrotation Zrotation
			JOINT right_ankle
			{
				OFFSET	11.7	-411.3	35.4
				CHANNELS 3  Xrotation Yrotation Zrotation
				JOINT right_toes
				{
					OFFSET	0	-60	-88.6
					CHANNELS 3  Xrotation Yrotation Zrotation
					JOINT right_foot_ee
					{
						OFFSET	22.5	-16.5	-42.2
						CHANNELS 3  Xrotation Yrotation Zrotation
						End Site
						{
							OFFSET	1	0	0
						}
					}
				}
			}
		}
	}
}
MOTION
Frames: 8
Frame Time: 0.02
2771.89 656.813 -1449.53 18.5872 65.8584 -21.1105 -3.21629 -0.0196151 1.31199 -3.21534 -0.103053 1.30808 -3.21666 -0.445709 1.23413 -3.2187 -0.245225 1.28902 -3.68403 19.7641 1.15679 -3.20786 35.3165 4.17029 -0.0 0.0 -0.0 5.84994 24.6281 10.7342 17.3631 -33.5848 62.4622 3.92796 -62.7825 2.3974 -38.9082 -2.8358 3.98114 0.334404 14.2608 7.94892 -0.0 0.0 -0.0 13.0864 22.315 -26.2602 -25.8368 15.8422 -65.6587 0.281601 7.94152 -0.0195471 -38.6947 2.81343 -3.96535 -7.64695 -22.7765 38.5421 0.0 0.0 0.0 -25.0589 19.3323 14.6952 -18.1937 0.312763 2.76276 39.0494 4.1226 -4.77523 -27.5055 0.0 0.0 -0.0 0.0 -0.0 25.7111 26.9337 -7.22105 -2.7125 -0.102141 -0.403711 5.82126 -23.0478 0.867871 -34.0561 0.0 0.0 0.0 0.0 0.0 
2751.07 657.255 -1450.81 19.0758 66.7059 -21.6201 -3.18693 -0.0766871 1.17795 -3.18617 -0.151483 1.17069 -3.18852 -0.455494 1.08904 -3.19007 -0.277796 1.1473 -2.87518 20.0879 1.28222 -2.27054 35.6329 4.08811 -0.0 0.0 -0.0 5.65652 24.5934 10.4699 16.0935 -34.3914 63.9889 3.6945 -61.3315 2.19114 -38.0429 -2.74547 3.91659 0.287849 14.4847 7.74176 -0.0 0.0 -0.0 13.1186 22.3734 -26.3299 -25.8859 16.236 -65.6993 0.33237 9.34985 -0.0271794 -39.8018 2.93011 -4.04639 -7.83367 -23.1788 39.5715 0.0 0.0 0.0 -25.5716 16.0241 14.7723 -18.435 0.310981 2.79973 39.5605 6.13124 -4.82047 -28.071 0.0 0.0 -0.0 0.0 -0.0 25.6349 27.0651 -7.36623 -5.34296 -0.182819 -0.79931 2.57735 -23.7451 0.388769 -32.5591 0.0 0.0 0.0 0.0 0.0 
2737.4 658.626 -1452.61 19.0203 67.7575 -21.4489 -3.13433 -0.119513 1.15062 -3.13362 -0.192483 1.14069 -3.13681 -0.486165 1.04971 -3.13821 -0.314293 1.11331 -2.30265 20.372 1.35514 -1.60001 35.9612 4.01788 -0.0 0.0 -0.0 5.63121 24.5119 10.4399 16.1 -34.9332 65.7124 3.51617 -60.1243 2.03557 -37.4073 -2.67974 3.8683 0.214114 14.9014 7.43943 -0.0 0.0 -0.0 13.2336 22.0486 -26.627 -25.8175 16.6922 -65.311 0.367132 10.3077 -0.0331137 -40.8569 3.04275 -4.12152 -7.985 -23.3597 40.5792 0.0 0.0 0.0 -25.8189 13.5421 14.5758 -17.4117 0.31747 2.64285 40.7825 7.4129 -4.92967 -28.2678 0.0 0.0 -0.0 0.0 -0.0 26.0431 26.9265 -7.40112 -7.6127 -0.237768 -1.14327 0.463927 -24.0263 0.0704204 -31.8247 0.0 0.0 0.0 0.0 0.0 
2718.5 656.569 -1456.89 18.9799 68.8164 -21.3736 -3.11997 -0.122476 1.09986 -3.11932 -0.192211 1.08984 -3.1224 -0.472252 1.00085 -3.12367 -0.30827 1.06286 -2.0067 20.4911 1.37775 -1.25406 36.0889 3.9618 -0.0 0.0 -0.0 5.2528 24.6586 9.91207 15.0288 -35.2166 66.5896 3.3258 -58.7296 1.87166 -36.9593 -2.63375 3.83383 0.179506 15.1932 7.33551 -0.0 0.0 -0.0 13.4515 22.2328 -27.1198 -25.4634 17.1317 -65.3535 0.367272 10.3116 -0.0331387 -41.5778 3.1205 -4.17166 -8.0892 -23.5124 41.2485 0.0 0.0 0.0 -26.009 11.7987 13.9128 -17.9929 0.314128 2.73197 41.1033 8.36266 -4.96131 -28.4293 0.0 0.0 -0.0 0.0 -0.0 25.8166 26.9664 -7.33684 -9.30678 -0.269875 -1.40124 -1.1004 -23.8611 -0.167462 -31.2627 0.0 0.0 0.0 0.0 0.0 
2694.82 664.62 -1469.22 20.2891 69.581 -21.9614 -3.12441 -0.0486565 0.747088 -3.1241 -0.0960957 0.742478 -3.12505 -0.288116 0.691014 -3.12567 -0.175371 0.727842 -0.619721 20.7166 0.904884 0.373934 36.5203 3.04224 -0.0 0.0 -0.0 5.44856 24.4149 10.1935 12.7478 -34.5038 66.8416 3.00015 -56.0534 1.59727 -36.7895 -2.61638 3.82068 0.00960415 15.5154 6.40263 -0.0 0.0 -0.0 13.5279 21.56 -27.3576 -24.9212 17.5536 -65.6221 0.346764 9.74716 -0.0295672 -42.4881 3.21957 -4.23358 -8.15519 -23.5916 41.6964 0.0 0.0 0.0 -25.9184 8.51397 12.2354 -19.139 0.30489 2.90757 39.5352 9.28638 -4.83061 -28.7274 0.0 0.0 -0.0 0.0 -0.0 26.4951 27.3599 -9.27893 -12.8302 -0.312154 -1.94013 -1.9756 -21.2655 -0.297789 -30.9085 0.0 0.0 0.0 0.0 0.0 
2677.32 669.22 -1478.73 19.6597 70.2365 -20.6078 -3.01898 -0.0230889 0.71668 -3.0187 -0.0686451 0.713759 -3.01927 -0.252834 0.671 -3.01987 -0.143692 0.702508 -1.14412 20.5168 1.40089 -0.274294 35.8993 3.72505 -0.0 0.0 -0.0 5.40205 23.7331 10.164 10.2585 -34.2005 65.9849 2.72738 -53.4832 1.37441 -35.7843 -2.51439 3.74174 0.210766 13.8976 7.03051 -0.0 0.0 -0.0 13.9132 21.9573 -28.2293 -24.4723 18.5709 -66.0993 0.378668 10.6244 -0.0352093 -43.4933 3.3301 -4.30011 -8.28451 -24.4609 41.7062 0.0 0.0 0.0 -25.8021 8.5743 10.4608 -18.9689 0.306483 2.88152 38.6379 9.2974 -4.75036 -30.0819 0.0 0.0 -0.0 0.0 -0.0 25.3252 27.1409 -9.4691 -12.3344 -0.308209 -1.86416 -0.985923 -19.3307 -0.147259 -30.3392 0.0 0.0 0.0 0.0 0.0 
2653.96 673.305 -1488.75 19.0926 70.0497 -19.7968 -3.02575 0.149702 0.726362 -3.02546 0.10318 0.734415 -3.02372 -0.0924279 0.735845 -3.02447 0.0249418 0.741208 -0.333986 20.7619 1.42109 0.667199 36.1159 3.52274 -0.0 0.0 -0.0 5.3777 24.0844 10.1125 8.07648 -34.0105 65.983 2.45005 -50.5057 1.1558 -35.235 -2.45925 3.69786 0.128945 13.9217 6.52494 -0.0 0.0 -0.0 14.1404 22.1924 -28.7449 -23.9843 19.341 -66.5286 0.372629 10.4587 -0.0341044 -44.656 3.45938 -4.37465 -8.39499 -24.729 42.284 0.0 0.0 0.0 -25.3991 7.40944 9.57776 -19.7977 0.297992 3.0084 37.108 9.74839 -4.6122 -30.4765 0.0 0.0 -0.0 0.0 -0.0 24.9383 27.5919 -10.7931 -13.258 -0.315028 -2.00571 0.0637464 -17.6441 0.0094497 -29.589 0.0 0.0 0.0 0.0 0.0 
2628.22 674.112 -1496.37 20.1965 70.7585 -20.5751 -2.94303 0.259301 0.562701 -2.94288 0.22297 0.57806 -2.94033 0.0649808 0.616153 -2.94082 0.161473 0.598159 0.148015 19.9436 1.76547 1.08744 34.2295 3.71708 -0.0 0.0 -0.0 3.98776 23.8378 8.19736 6.04328 -33.2555 67.7056 2.4201 -50.1598 1.13276 -33.6855 -2.30601 3.57126 -0.169333 11.5997 3.71107 -0.0 0.0 -0.0 14.2306 22.7288 -28.9077 -22.9449 20.0412 -65.8308 0.304523 8.57866 -0.0228402 -46.1645 3.62931 -4.46742 -8.36603 -24.5669 42.2468 0.0 0.0 0.0 -25.1957 5.55787 7.96597 -20.6836 0.286886 3.14388 37.8919 9.03333 -4.68083 -31.2107 0.0 0.0 -0.0 0.0 -0.0 24.5284 28.6926 -11.612 -16.6157 -0.320581 -2.52077 3.14726 -13.0348 0.458483 -28.413 0.0 0.0 0.0 0.0 0.0 
